# xmcd
#
# Track frame offsets: 
#        150
#        13120
#        26628
#        40638
#        53293
#        64738
#        77013
#        88700
#        101405
#        113670
#        125845
#        136920
#        149680
#        162898
#        175070
#        187470
#        199460
#        210505
#        221778
#        231563
#        241463
#        254930
#        266498
#        277680
#        289250
#        301035
#
# Disc length: 4145 seconds
#
# Revision: 0
# Processed by: cddbd v1.5.2PL0 Copyright (c) Steve Scherf et al.
# Submitted via: ExactAudioCopy v0.95b3
#
DISCID=87102f1a
DTITLE=The Drifters  - Rockin' and Driftin' The Drifters Box [CD1
DYEAR=1900
DGENRE=
TTITLE0=Let The Boogie Woogie Roll (Clyde McPhatter)
TTITLE1=Money Honey (Clyde McPhatter and The Drifters)
TTITLE2=Lucille (Clyde McPhatter and The Drifters)
TTITLE3=The Way I Feel (Clyde McPhatter and The Drifters)
TTITLE4=Such A Night (Clyde McPhatter and The Drifters)
TTITLE5=Gone (Clyde McPhatter and The Drifters)
TTITLE6=Don't Dog Me (Clyde McPhatter)
TTITLE7=Bip Bam (The Drifters Featuring Clyde McPhatter)
TTITLE8=The Bells Of St. Mary's (The Drifters Featuring Clyde McPhatte
TTITLE8=r)
TTITLE9=White Christmas (The Drifters Featuring Clyde McPhatter and Bill
TTITLE9=Pinkney)
TTITLE10=Honey Love (The Drifters Featuring Clyde McPhatter)
TTITLE11=What'cha Gonna Do (Clyde McPhatter and The Drifters)
TTITLE12=Someday You'll Want Me To Want You (The Drifters Featuring Cl
TTITLE12=yde McPhatter)
TTITLE13=Three Thirty Three
TTITLE14=Adorable
TTITLE15=Your Promise To Be Mine
TTITLE16=Ruby Baby
TTITLE17=Steamboat
TTITLE18=Drifting Away From You
TTITLE19=Treasure Of Love (Clyde McPhatter)
TTITLE20=Without Love (There Is Nothing) (Clyde McPhatter)
TTITLE21=Fools Fall In Love
TTITLE22=Long Lonely Nights (Clyde McPhatter)
TTITLE23=Drip Drop
TTITLE24=Lover's Question (Clyde McPhatter)
TTITLE25=Baltimore
EXTD=
EXTT0=
EXTT1=
EXTT2=
EXTT3=
EXTT4=
EXTT5=
EXTT6=
EXTT7=
EXTT8=
EXTT9=
EXTT10=
EXTT11=
EXTT12=
EXTT13=
EXTT14=
EXTT15=
EXTT16=
EXTT17=
EXTT18=
EXTT19=
EXTT20=
EXTT21=
EXTT22=
EXTT23=
EXTT24=
EXTT25=
PLAYORDER=
